# xmcd CD database file
#
# Track frame offsets:
#	150
#	12780
#	25945
#	39887
#	53287
#	65905
#	81155
#	96780
#	109362
#	140280
#	164310
#
# Disc length: 2314 seconds
#
# Revision: 1
# Processed by: cddbd v1.5PL3 Copyright (c) Steve Scherf et al.
# Submitted via: CDex 1.51
#
DISCID=8309080b
DTITLE=Babatunde Olatunji - Drums of Passion and more Box 3/4
DYEAR=1962
DGENRE=Jazz
TTITLE0=Saturday night limbo
TTITLE1=Lady Kennedy
TTITLE2=Eyo-sese
TTITLE3=African waltz
TTITLE4=Ashafa
TTITLE5=Ojo davis
TTITLE6=Bo-su-aye
TTITLE7=Someday
TTITLE8=Saturday night limbo
TTITLE9=African waltz
TTITLE10=Totofioko
EXTD=YEAR: 1962
EXTT0=
EXTT1=
EXTT2=
EXTT3=
EXTT4=
EXTT5=
EXTT6=
EXTT7=
EXTT8=
EXTT9=
EXTT10=
PLAYORDER=
